<?xml version="1.0" encoding="utf-8"?>
<!-- Generator: Adobe Illustrator 21.0.2, SVG Export Plug-In . SVG Version: 6.00 Build 0)  -->
<svg version="1.1" xmlns="http://www.w3.org/2000/svg" xmlns:xlink="http://www.w3.org/1999/xlink" x="0px" y="0px"
	 viewBox="0 0 647 177.9" style="enable-background:new 0 0 647 177.9;" xml:space="preserve">
<style type="text/css">
	.st0{fill:#383733;}
	.st1{fill:#F15A29;}
	.st2{fill:none;}
</style>
<g id="Layer_4">
</g>
<g id="Layer_1">
	<g>
		<g>
			<path class="st0" d="M128.5,131.9c-0.4,0-0.7-0.1-1-0.6c-0.3-0.3-0.3-0.7-0.3-1.3c0-0.4,0.1-0.9,0.3-1.2c0.1-0.4,0.6-0.6,1-0.6
				h6.8c0.4,0,0.9,0.1,1.2,0.3c0.3,0.1,0.6,0.6,0.6,1v18.6c0,1.6-0.3,3-0.7,4c-0.4,1-1,1.9-1.8,2.7c-0.7,0.7-1.6,1.2-2.7,1.5
				c-1,0.3-2.2,0.4-3.4,0.4c-1.3,0-2.5-0.1-3.6-0.6c-1-0.3-2.1-0.9-2.8-1.5c-0.7-0.6-1.3-1.5-1.8-2.4s-0.6-1.9-0.6-3.1
				c0-0.7,0.1-1.3,0.6-1.6c0.3-0.3,0.9-0.4,1.6-0.4c0.4,0,1,0.1,1.3,0.3c0.4,0.1,0.6,0.6,0.6,1c0,0.6,0.1,1.2,0.3,1.6
				c0.1,0.4,0.4,1,0.7,1.3c0.4,0.4,0.9,0.7,1.5,1c0.6,0.3,1.2,0.3,2.1,0.3c1.5,0,2.7-0.4,3.4-1.2s1.2-2.1,1.2-3.7v-16.4h-4.6V131.9z
				"/>
			<path class="st0" d="M150.5,156.7c-0.3,0-0.6,0-0.9-0.1c-0.3-0.1-0.6-0.1-0.9-0.3s-0.4-0.3-0.6-0.6c-0.1-0.1-0.3-0.4-0.3-0.7
				c0-0.1,0-0.3,0-0.3l7.7-25.1c0.1-0.4,0.4-0.7,1-1c0.4-0.3,1-0.3,1.6-0.3c0.6,0,1.2,0.1,1.6,0.3c0.4,0.3,0.9,0.6,1,1l7.7,25.1
				c0,0.1,0.1,0.3,0.1,0.3c0,0.3-0.1,0.4-0.3,0.6s-0.4,0.4-0.6,0.6c-0.3,0.1-0.6,0.3-0.9,0.3c-0.3,0.1-0.6,0.1-0.9,0.1
				c-0.3,0-0.6,0-0.9-0.1c-0.3-0.1-0.4-0.3-0.6-0.6l-1.6-5.5h-9.7l-1.6,5.5c-0.1,0.3-0.3,0.6-0.6,0.6
				C151.2,156.7,150.9,156.7,150.5,156.7z M162.2,147.1l-3.9-13.4l-3.9,13.4H162.2z"/>
			<path class="st0" d="M179.6,129.7c0-0.3,0.1-0.7,0.4-0.9c0.3-0.3,0.7-0.4,1.2-0.4h7.6c1.2,0,2.4,0.1,3.3,0.4
				c1,0.3,1.9,0.7,2.7,1.5s1.3,1.6,1.8,2.7c0.4,1,0.6,2.4,0.6,4v0.3c0,1.5-0.3,2.8-0.7,4c-0.4,1-1,1.9-1.9,2.7
				c-0.7,0.7-1.8,1.2-2.8,1.5c-1,0.3-2.2,0.4-3.4,0.4h-4.8v9.7c0,0.4-0.1,0.7-0.6,1c-0.4,0.3-0.9,0.3-1.5,0.3c-0.4,0-1-0.1-1.5-0.3
				c-0.4-0.3-0.6-0.6-0.6-1v-25.9H179.6z M183.6,131.9v10.6h4.8c1.5,0,2.5-0.4,3.4-1.2c0.7-0.9,1.2-2.1,1.2-3.9V137
				c0-1.8-0.4-3-1.2-3.7c-0.7-0.7-1.9-1.2-3.4-1.2h-4.8V131.9z"/>
			<path class="st0" d="M207.5,156.7c-0.3,0-0.6,0-0.9-0.1c-0.3-0.1-0.6-0.1-0.9-0.3c-0.3-0.1-0.4-0.3-0.6-0.6
				c-0.1-0.1-0.3-0.4-0.3-0.7c0-0.1,0-0.3,0-0.3l7.7-25.1c0.1-0.4,0.4-0.7,1-1c0.4-0.3,1-0.3,1.6-0.3c0.6,0,1.2,0.1,1.6,0.3
				c0.4,0.3,0.9,0.6,1,1l7.7,25.1c0,0.1,0.1,0.3,0.1,0.3c0,0.3-0.1,0.4-0.3,0.6c-0.1,0.1-0.4,0.4-0.6,0.6c-0.3,0.1-0.6,0.3-0.9,0.3
				c-0.3,0.1-0.6,0.1-0.9,0.1c-0.3,0-0.6,0-0.9-0.1c-0.3-0.1-0.4-0.3-0.6-0.6l-1.6-5.5h-9.7l-1.6,5.5c-0.1,0.3-0.3,0.6-0.6,0.6
				C208.3,156.7,207.8,156.7,207.5,156.7z M219.3,147.1l-3.9-13.4l-3.9,13.4H219.3z"/>
			<path class="st0" d="M252.4,156.7c-0.4,0-1-0.1-1.3-0.3c-0.3-0.1-0.7-0.6-1-1.2l-9.2-17.7v17.8c0,0.4-0.1,0.7-0.6,1
				s-0.9,0.3-1.5,0.3c-0.4,0-1-0.1-1.5-0.3c-0.4-0.3-0.6-0.6-0.6-1v-25.7c0-0.4,0.1-0.9,0.6-1c0.4-0.1,0.9-0.3,1.5-0.3
				c0.7,0,1.3,0.1,1.8,0.4c0.4,0.3,0.9,0.9,1.3,1.8l8.6,16.8v-17.8c0-0.4,0.1-0.7,0.6-1c0.4-0.1,0.9-0.3,1.5-0.3
				c0.4,0,1,0.1,1.5,0.3c0.4,0.1,0.6,0.6,0.6,1v25.7c0,0.4-0.1,0.7-0.6,1C253.5,156.6,253,156.7,252.4,156.7z"/>
			<path class="st0" d="M271.6,140.8h5.9c0.4,0,0.7,0.1,1,0.4c0.3,0.3,0.3,0.7,0.3,1.2c0,0.3-0.1,0.7-0.3,1c-0.1,0.3-0.6,0.6-1,0.6
				h-5.9v8.9h11.6c0.4,0,0.7,0.1,1,0.6c0.3,0.3,0.3,0.7,0.3,1.3c0,0.4-0.1,0.9-0.3,1.2c-0.1,0.4-0.6,0.6-1,0.6h-13.8
				c-0.4,0-0.9-0.1-1.2-0.3c-0.4-0.3-0.6-0.6-0.6-1v-25.7c0-0.4,0.1-0.7,0.6-1c0.4-0.3,0.7-0.3,1.2-0.3h13.8c0.4,0,0.7,0.1,1,0.6
				c0.1,0.4,0.3,0.7,0.3,1.2c0,0.4-0.1,0.9-0.3,1.3c-0.3,0.3-0.6,0.6-1,0.6h-11.6V140.8z"/>
			<path class="st0" d="M302.5,153.3c1.3,0,2.5-0.3,3.6-1c0.9-0.7,1.3-1.8,1.3-3.1c0-1.2-0.3-2.1-0.9-2.7c-0.6-0.7-1.3-1.3-2.4-1.8
				c-0.9-0.4-1.9-0.9-3.1-1.3c-1-0.4-2.1-0.9-3.1-1.5c-0.9-0.6-1.8-1.3-2.4-2.4c-0.6-0.9-0.9-2.2-0.9-3.7s0.3-2.7,0.7-3.6
				c0.6-0.9,1.2-1.8,2.1-2.4c0.9-0.6,1.8-1,2.8-1.2c1-0.3,2.1-0.3,3.1-0.3c0.6,0,1.3,0,2.2,0.1c0.7,0.1,1.6,0.3,2.4,0.4
				c0.7,0.1,1.3,0.4,1.8,0.9c0.4,0.3,0.7,0.7,0.7,1.3c0,0.1,0,0.4-0.1,0.7c0,0.3-0.1,0.4-0.3,0.7c-0.1,0.3-0.3,0.4-0.6,0.6
				c-0.1,0.1-0.4,0.3-0.7,0.3s-0.6-0.1-0.7-0.3c-0.3-0.1-0.6-0.3-1-0.4c-0.4-0.1-0.9-0.3-1.5-0.4c-0.3-0.6-0.9-0.6-1.8-0.6
				c-1.5,0-2.5,0.3-3.6,0.9c-0.9,0.6-1.3,1.5-1.3,2.7c0,0.9,0.3,1.8,0.9,2.2c0.6,0.6,1.3,1,2.4,1.5c0.9,0.4,1.9,0.9,3.1,1.2
				c1,0.4,2.1,1,3.1,1.6c0.9,0.7,1.8,1.6,2.4,2.7c0.6,1,0.9,2.5,0.9,4.2c0,1.3-0.1,2.7-0.6,3.7c-0.4,1-1,1.9-1.8,2.5
				c-0.7,0.7-1.8,1.2-2.8,1.5c-1,0.3-2.2,0.4-3.6,0.4c-1.3,0-2.4-0.1-3.4-0.4c-1-0.3-1.9-0.7-2.7-1.2s-1.3-0.9-1.8-1.5
				c-0.4-0.6-0.6-1-0.6-1.5c0-0.3,0-0.4,0.1-0.7c0.1-0.3,0.1-0.4,0.4-0.7c0.1-0.1,0.3-0.4,0.6-0.6c0.1-0.1,0.4-0.1,0.7-0.1
				c0.3,0,0.7,0.1,1,0.4c0.3,0.3,0.7,0.7,1.2,1c0.4,0.4,1,0.7,1.8,1C300.6,153.2,301.5,153.3,302.5,153.3z"/>
			<path class="st0" d="M327.4,140.8h5.9c0.4,0,0.7,0.1,1,0.4c0.3,0.3,0.3,0.7,0.3,1.2c0,0.3-0.1,0.7-0.3,1c-0.1,0.3-0.6,0.6-1,0.6
				h-5.9v8.9H339c0.4,0,0.7,0.1,1,0.6c0.3,0.3,0.3,0.7,0.3,1.3c0,0.4-0.1,0.9-0.3,1.2c-0.1,0.4-0.6,0.6-1,0.6h-13.8
				c-0.4,0-0.9-0.1-1.2-0.3c-0.4-0.3-0.6-0.6-0.6-1v-25.7c0-0.4,0.1-0.7,0.6-1c0.4-0.3,0.7-0.3,1.2-0.3H339c0.4,0,0.7,0.1,1,0.6
				c0.1,0.4,0.3,0.7,0.3,1.2c0,0.4-0.1,0.9-0.3,1.3c-0.3,0.3-0.6,0.6-1,0.6h-11.6V140.8z"/>
			<path class="st0" d="M379.8,136.1c0-0.3-0.1-0.7-0.1-1.2c-0.1-0.4-0.3-0.9-0.6-1.3c-0.3-0.4-0.7-0.7-1.3-1
				c-0.6-0.3-1.3-0.4-2.4-0.4c-1.5,0-2.7,0.4-3.4,1.2s-1.2,2.1-1.2,3.7v11.3c0,1.6,0.4,3,1.2,3.7s1.9,1.2,3.6,1.2
				c1,0,1.8-0.1,2.4-0.4c0.6-0.3,1-0.6,1.3-1c0.3-0.4,0.4-0.9,0.6-1.5c0.1-0.4,0.1-1,0.1-1.5c0-0.4,0.3-0.9,0.6-1
				c0.3-0.1,0.9-0.3,1.3-0.3c0.7,0,1.2,0.1,1.6,0.4c0.3,0.3,0.4,0.9,0.4,1.8c0,1-0.1,2.1-0.6,3c-0.4,0.9-1,1.6-1.8,2.4
				c-0.7,0.6-1.8,1.2-2.8,1.5c-1,0.3-2.2,0.6-3.6,0.6c-1.2,0-2.2-0.1-3.3-0.4c-1-0.3-1.9-0.7-2.7-1.5s-1.3-1.6-1.8-2.7
				c-0.4-1-0.7-2.4-0.7-4v-11.3c0-1.6,0.3-3,0.7-4c0.4-1,1-1.9,1.9-2.7c0.7-0.7,1.6-1.2,2.8-1.5c1-0.3,2.2-0.4,3.3-0.4
				c1.3,0,2.5,0.1,3.6,0.6c1,0.3,2.1,0.9,2.8,1.5c0.7,0.6,1.3,1.3,1.8,2.2c0.4,0.9,0.6,1.8,0.6,2.8c0,0.9-0.1,1.5-0.4,1.8
				c-0.3,0.3-0.9,0.4-1.5,0.4c-0.6,0-1-0.1-1.5-0.3C380.1,137,379.8,136.7,379.8,136.1z"/>
			<path class="st0" d="M409.1,129.7c0-0.4,0.1-0.7,0.6-1c0.4-0.1,0.9-0.3,1.5-0.3c0.4,0,1,0.1,1.5,0.3c0.4,0.1,0.6,0.6,0.6,1v18.6
				c0,1.6-0.3,3-0.7,4c-0.4,1-1,1.9-1.9,2.7c-0.7,0.7-1.8,1.2-2.8,1.5s-2.2,0.4-3.6,0.4c-1.2,0-2.4-0.1-3.4-0.4
				c-1-0.3-2.1-0.7-2.8-1.5s-1.5-1.6-1.9-2.7c-0.4-1-0.7-2.4-0.7-4v-18.6c0-0.4,0.1-0.7,0.6-1c0.4-0.1,0.9-0.3,1.5-0.3
				c0.4,0,1,0.1,1.5,0.3c0.4,0.1,0.6,0.6,0.6,1v18.6c0,1.6,0.4,3,1.3,3.7c0.9,0.7,1.9,1.2,3.4,1.2s2.7-0.4,3.6-1.2
				c0.9-0.7,1.2-2.1,1.2-3.7v-18.6H409.1z"/>
			<path class="st0" d="M426.1,129.7c0-0.4,0.1-0.7,0.6-1c0.4-0.1,0.9-0.3,1.5-0.3c0.4,0,1,0.1,1.5,0.3c0.4,0.1,0.6,0.6,0.6,1v25.7
				c0,0.4-0.1,0.7-0.6,1c-0.4,0.3-0.9,0.3-1.5,0.3c-0.4,0-1-0.1-1.5-0.3c-0.4-0.3-0.6-0.6-0.6-1V129.7z"/>
			<path class="st0" d="M450,153.3c1.3,0,2.5-0.3,3.6-1c0.9-0.7,1.3-1.8,1.3-3.1c0-1.2-0.3-2.1-0.9-2.7c-0.6-0.7-1.3-1.3-2.4-1.8
				c-0.9-0.4-1.9-0.9-3.1-1.3c-1-0.4-2.1-0.9-3.1-1.5c-0.9-0.6-1.8-1.3-2.4-2.4c-0.6-0.9-0.9-2.2-0.9-3.7s0.3-2.7,0.7-3.6
				c0.6-0.9,1.2-1.8,2.1-2.4c0.9-0.6,1.8-1,2.8-1.2c1-0.3,2.1-0.3,3.1-0.3c0.6,0,1.3,0,2.2,0.1c0.7,0.1,1.6,0.3,2.4,0.4
				c0.7,0.1,1.3,0.4,1.8,0.9c0.4,0.3,0.7,0.7,0.7,1.3c0,0.1,0,0.4-0.1,0.7c0,0.3-0.1,0.4-0.3,0.7c-0.1,0.3-0.3,0.4-0.6,0.6
				c-0.1,0.1-0.4,0.3-0.7,0.3c-0.3,0-0.6-0.1-0.7-0.3c-0.3-0.1-0.6-0.3-1-0.4c-0.4-0.1-0.9-0.3-1.5-0.4c-0.6-0.1-1.2-0.3-2.1-0.3
				c-1.5,0-2.5,0.3-3.6,0.9c-0.9,0.6-1.3,1.5-1.3,2.7c0,0.9,0.3,1.8,0.9,2.2c0.6,0.6,1.3,1,2.4,1.5c0.9,0.4,1.9,0.9,3.1,1.2
				c1,0.4,2.1,1,3.1,1.6c0.9,0.7,1.8,1.6,2.4,2.7c0.6,1,0.9,2.5,0.9,4.2c0,1.3-0.1,2.7-0.6,3.7c-0.4,1-1,1.9-1.8,2.5
				c-0.7,0.7-1.8,1.2-2.8,1.5c-1,0.3-2.2,0.4-3.6,0.4c-1.3,0-2.4-0.1-3.4-0.4s-1.9-0.7-2.7-1.2s-1.3-0.9-1.8-1.5
				c-0.4-0.6-0.6-1-0.6-1.5c0-0.3,0-0.4,0.1-0.7c0.1-0.3,0.1-0.4,0.4-0.7c0.1-0.1,0.3-0.4,0.6-0.6c0.1-0.1,0.4-0.1,0.7-0.1
				s0.7,0.1,1,0.4c0.3,0.3,0.7,0.7,1.2,1c0.4,0.4,1,0.7,1.8,1C448.1,153.2,449,153.3,450,153.3z"/>
			<path class="st0" d="M470.7,129.7c0-0.4,0.1-0.7,0.6-1c0.4-0.1,0.9-0.3,1.5-0.3c0.4,0,1,0.1,1.5,0.3c0.4,0.1,0.6,0.6,0.6,1v25.7
				c0,0.4-0.1,0.7-0.6,1c-0.4,0.3-0.9,0.3-1.5,0.3c-0.4,0-1-0.1-1.5-0.3c-0.4-0.3-0.6-0.6-0.6-1V129.7z"/>
			<path class="st0" d="M503.5,156.7c-0.4,0-1-0.1-1.3-0.3c-0.4-0.3-0.7-0.6-1-1.2l-9.2-17.7v17.8c0,0.4-0.1,0.7-0.6,1
				s-0.9,0.3-1.5,0.3c-0.4,0-1-0.1-1.5-0.3c-0.4-0.3-0.6-0.6-0.6-1v-25.7c0-0.4,0.1-0.9,0.6-1c0.4-0.1,0.9-0.3,1.5-0.3
				c0.7,0,1.3,0.1,1.8,0.4c0.4,0.3,0.9,0.9,1.3,1.8l8.6,16.8v-17.8c0-0.4,0.1-0.7,0.6-1c0.4-0.1,0.9-0.3,1.5-0.3
				c0.4,0,1,0.1,1.5,0.3c0.4,0.1,0.6,0.6,0.6,1v25.7c0,0.4-0.1,0.7-0.6,1C504.6,156.6,504.1,156.7,503.5,156.7z"/>
			<path class="st0" d="M522.7,140.8h5.9c0.4,0,0.7,0.1,1,0.4c0.3,0.3,0.3,0.7,0.3,1.2c0,0.3-0.1,0.7-0.3,1c-0.1,0.3-0.6,0.6-1,0.6
				h-5.9v8.9h11.6c0.4,0,0.7,0.1,1,0.6c0.3,0.3,0.3,0.7,0.3,1.3c0,0.4-0.1,0.9-0.3,1.2c-0.1,0.4-0.6,0.6-1,0.6h-13.8
				c-0.4,0-0.9-0.1-1.2-0.3c-0.4-0.3-0.6-0.6-0.6-1v-25.7c0-0.4,0.1-0.7,0.6-1c0.4-0.3,0.7-0.3,1.2-0.3h13.8c0.4,0,0.7,0.1,1,0.6
				c0.1,0.4,0.3,0.7,0.3,1.2c0,0.4-0.1,0.9-0.3,1.3c-0.3,0.3-0.6,0.6-1,0.6h-11.6V140.8z"/>
		</g>
		<g>
			<path class="st1" d="M104.8,62.9c1.4,0,2.5,0.4,3.2,1.2c0.8,0.8,1.2,1.9,1.2,3.2v30.8c0,1.5-0.4,2.6-1.1,3.5
				c-0.7,0.9-1.7,1.4-2.8,1.7c-4.3,1.3-8.8,2.4-13.3,3.1s-8.8,1.1-12.7,1.1c-6.1,0-11.6-0.9-16.6-2.6s-9.3-4.4-12.9-8
				c-3.6-3.6-6.4-8.2-8.4-13.7c-2-5.5-3-11.9-3-19.1c0-3.3,0.4-6.8,1.1-10.5c0.7-3.7,1.9-7.2,3.4-10.4c1.5-3.2,3.4-6.2,5.7-8.9
				c2.3-2.7,5-5,8.1-6.9c3.1-1.9,6.6-3.4,10.4-4.5c3.9-1.1,8.2-1.6,12.9-1.6c4.3,0,8.4,0.4,12.5,1.1c4,0.7,7.7,1.8,11.1,3.2
				c0.8,0.4,1.4,0.9,1.8,1.5c0.4,0.6,0.5,1.3,0.5,2c0,1.1-0.3,2-1,3c-0.7,0.9-1.6,1.4-2.7,1.4h-0.5c-0.2,0-0.3,0-0.5-0.1
				c-1.7-0.5-3.5-0.9-5.3-1.3c-1.8-0.4-3.6-0.7-5.4-1c-1.8-0.3-3.6-0.5-5.3-0.6c-1.7-0.2-3.3-0.2-4.7-0.2c-5.5,0-10.3,0.9-14.2,2.8
				c-3.9,1.9-7.1,4.4-9.6,7.6c-2.5,3.2-4.3,6.9-5.4,11.2c-1.1,4.3-1.7,8.4-1.7,12.5c0,5.1,0.5,9.8,1.6,14.1s2.8,8,5.3,11.1
				c2.4,3,5.6,5.4,9.5,7c3.9,1.6,8.7,2.4,14.4,2.4c3.1,0,6.2-0.2,9.4-0.7c3.1-0.5,6.1-1.1,9-1.9V70.8H82.1c-1.3,0-2.3-0.4-3-1.2
				c-0.7-0.8-1-1.7-1-2.7c0-1,0.3-1.9,1-2.7c0.6-0.8,1.6-1.2,3-1.2H104.8z"/>
			<path class="st1" d="M122.8,64.5c0-6,0.9-11.7,2.6-17.1c1.7-5.4,4.3-10,7.6-13.9c3.3-3.9,7.5-6.8,12.4-8.9
				c4.9-2.1,10.6-3.2,17-3.2c6.4,0,12,1.1,16.9,3.2c4.9,2.1,9,5.1,12.4,8.9c3.3,3.9,5.9,8.5,7.6,13.9c1.7,5.4,2.6,11.1,2.6,17.1
				c0,6-0.9,11.7-2.6,17.1c-1.7,5.4-4.3,10-7.6,13.8c-3.3,3.8-7.4,6.8-12.4,8.9s-10.6,3.2-16.9,3.2c-6.4,0-12-1.1-17-3.2
				s-9.1-5.1-12.4-8.9s-5.9-8.5-7.6-13.8C123.7,76.2,122.8,70.5,122.8,64.5z M134.1,64.5c0,4.1,0.5,8.3,1.6,12.5
				c1.1,4.3,2.7,8,5,11.3c2.3,3.2,5.2,5.8,8.8,7.8c3.6,1.9,7.9,2.9,12.9,2.9c5,0,9.3-1,12.9-2.9c3.6-1.9,6.5-4.5,8.8-7.8
				c2.3-3.2,4-7,5-11.3c1.1-4.3,1.6-8.5,1.6-12.5c0-4.1-0.5-8.2-1.6-12.5c-1.1-4.3-2.7-8-5-11.3c-2.3-3.3-5.2-5.9-8.8-7.8
				c-3.6-1.9-7.9-2.9-12.9-2.9c-5,0-9.3,1-12.9,2.9c-3.6,1.9-6.5,4.6-8.8,7.8c-2.3,3.3-4,7-5,11.3C134.6,56.3,134.1,60.4,134.1,64.5
				z"/>
			<path class="st1" d="M214.1,27.1c0-0.8,0.1-1.6,0.4-2.2c0.3-0.6,0.7-1.2,1.2-1.6c0.5-0.4,1.1-0.7,1.7-0.9c0.6-0.2,1.3-0.3,2-0.3
				c1.3,0,2.5,0.4,3.6,1.2c1.1,0.8,1.6,2.1,1.6,3.8v49.6c0,3.8,0.6,7.1,1.9,9.9c1.3,2.8,3,5.1,5,6.9s4.5,3.2,7.1,4.1
				c2.7,0.9,5.4,1.3,8.2,1.3s5.5-0.4,8.2-1.3c2.7-0.9,5.1-2.2,7.2-4.1s3.8-4.1,5.1-6.9c1.3-2.8,1.9-6.1,1.9-9.9V27.1
				c0-0.8,0.1-1.6,0.4-2.2c0.3-0.6,0.7-1.2,1.2-1.6c0.5-0.4,1.1-0.7,1.7-0.9c0.6-0.2,1.3-0.3,2-0.3c1.3,0,2.5,0.4,3.6,1.2
				c1.1,0.8,1.6,2.1,1.6,3.8V77c0,5.2-0.9,9.7-2.7,13.5c-1.8,3.8-4.3,7-7.3,9.5c-3.1,2.5-6.6,4.4-10.5,5.7c-4,1.2-8.1,1.9-12.3,1.9
				s-8.4-0.6-12.3-1.9c-4-1.2-7.4-3.1-10.5-5.7s-5.5-5.7-7.3-9.5c-1.8-3.8-2.7-8.3-2.7-13.5V27.1z"/>
			<path class="st1" d="M298.4,27.2c0-0.7,0.1-1.4,0.4-2c0.3-0.6,0.6-1.1,1.1-1.6c0.5-0.5,1-0.8,1.7-1.1c0.6-0.3,1.3-0.4,2-0.4h25.3
				c3.6,0,7.2,0.3,10.8,0.9c3.6,0.6,6.8,1.7,9.6,3.3c2.8,1.6,5.1,3.8,6.9,6.7c1.8,2.8,2.6,6.5,2.6,10.9c0,4.6-1.5,8.6-4.5,11.8
				c-3,3.2-7.2,5.4-12.8,6.6v0.2c2.8,0.4,5.2,1.2,7,2.2c1.8,1,3.3,2.4,4.4,3.9c1.1,1.6,1.9,3.4,2.5,5.5s1,4.4,1.3,6.9
				c0.3,3.1,0.6,5.8,0.8,8.3c0.2,2.5,0.4,4.6,0.6,6.3c0.2,2,0.3,3.8,0.4,5.4c0,1.7-0.5,3-1.6,3.8c-1.1,0.9-2.3,1.3-3.7,1.3
				c-1.3,0-2.4-0.4-3.5-1.2c-1.1-0.8-1.7-2-1.9-3.6c-0.5-4.8-0.9-9-1.2-12.6c-0.3-3.6-0.6-6.7-1.1-9.2s-1-4.6-1.7-6.2
				c-0.7-1.6-1.7-2.9-2.9-3.8c-1.3-0.9-2.9-1.6-4.8-1.9c-2-0.4-4.4-0.5-7.4-0.5h-19.9v34.1c0,0.8-0.1,1.6-0.4,2.2
				c-0.3,0.6-0.7,1.2-1.2,1.6c-0.5,0.4-1.1,0.7-1.7,0.9c-0.6,0.2-1.3,0.3-1.9,0.3c-1.3,0-2.5-0.4-3.6-1.2c-1.1-0.8-1.6-2.1-1.6-3.7
				V27.2z M324.3,59c1.8,0,3.6,0,5.4-0.1c1.8-0.1,3.6-0.3,5.4-0.6c1.8-0.3,3.4-0.8,4.9-1.4c1.5-0.6,2.9-1.5,4-2.5
				c1.2-1.1,2.1-2.4,2.7-4s1-3.5,1-5.7c0-2.2-0.3-4.1-0.9-5.7c-0.6-1.6-1.4-2.9-2.4-4s-2.1-1.9-3.5-2.5c-1.3-0.6-2.7-1.1-4.2-1.4
				c-1.5-0.3-3-0.5-4.5-0.6c-1.5-0.1-3-0.1-4.4-0.1h-19.2V59H324.3z"/>
			<path class="st1" d="M421.9,92.7l27.9-61.8c0.7-1.8,1.5-3.2,2.2-4.4c0.7-1.1,1.4-2,2.2-2.7c0.8-0.6,1.6-1.1,2.5-1.4
				c0.9-0.3,2-0.4,3.2-0.4c1.1,0,2.2,0.2,3.2,0.5c1,0.4,1.9,0.9,2.6,1.7c0.7,0.7,1.3,1.7,1.8,2.9c0.4,1.2,0.6,2.5,0.6,4.1v70.4
				c0,1.5-0.5,2.7-1.5,3.5c-1,0.8-2.1,1.2-3.4,1.2c-1.2,0-2.3-0.4-3.2-1.2c-1-0.8-1.5-1.9-1.5-3.5V32.3L428,99.8
				c-0.6,1.5-1.5,2.6-2.7,3.4c-1.2,0.8-2.4,1.2-3.7,1.2c-1.3,0-2.4-0.4-3.5-1.1c-1.1-0.7-2-1.9-2.7-3.5l-30.4-67v68.8
				c0,1.5-0.5,2.7-1.5,3.5c-1,0.8-2.1,1.2-3.4,1.2c-1.2,0-2.3-0.4-3.2-1.2c-1-0.8-1.5-1.9-1.5-3.5V31.2c0-1.6,0.2-2.9,0.6-4.1
				c0.4-1.2,1-2.1,1.8-2.9c0.7-0.7,1.6-1.3,2.6-1.7c1-0.4,2.1-0.5,3.2-0.5c1.2,0,2.3,0.1,3.3,0.4c1,0.3,1.9,0.7,2.7,1.4
				c0.8,0.7,1.6,1.6,2.3,2.7c0.7,1.2,1.5,2.6,2.3,4.4l27.3,61.7H421.9z"/>
			<path class="st1" d="M492,106.3c-0.7,0-1.3-0.1-1.9-0.4c-0.6-0.3-1.2-0.6-1.7-1.1c-0.5-0.5-0.9-1-1.2-1.6
				c-0.3-0.6-0.4-1.2-0.4-1.9v-74c0-0.6,0.1-1.2,0.4-1.9c0.2-0.6,0.6-1.2,1-1.6s1-0.9,1.6-1.2c0.6-0.3,1.2-0.4,1.9-0.4h44
				c1.5,0,2.5,0.4,3.2,1.3s1.1,1.9,1.1,2.9c0,1.1-0.4,2.1-1.1,3c-0.7,0.9-1.8,1.3-3.2,1.3h-38.6v28h36.7c1.5,0,2.6,0.4,3.3,1.3
				c0.7,0.9,1.1,1.9,1.1,2.9c0,1.1-0.4,2-1.1,2.9c-0.7,0.9-1.8,1.3-3.3,1.3h-36.7v30.5h40.3c1.5,0,2.5,0.4,3.2,1.3
				c0.7,0.9,1.1,1.9,1.1,2.9c0,1.1-0.4,2.1-1.1,3c-0.7,0.9-1.8,1.3-3.2,1.3H492z"/>
			<path class="st1" d="M556.1,30.7c-1.5,0-2.5-0.5-3.3-1.4c-0.7-0.9-1.1-1.9-1.1-3c0-1.1,0.4-2.1,1.1-3c0.7-0.9,1.8-1.3,3.3-1.3
				h56.4c1.5,0,2.6,0.4,3.3,1.3c0.7,0.9,1.1,1.9,1.1,3c0,1.1-0.4,2-1.1,3c-0.7,0.9-1.9,1.4-3.3,1.4h-22.7v70.5
				c0,0.8-0.1,1.6-0.4,2.2s-0.7,1.2-1.2,1.6c-0.5,0.4-1.1,0.7-1.7,0.9c-0.6,0.2-1.3,0.3-1.9,0.3c-1.3,0-2.5-0.4-3.6-1.3
				c-1.1-0.8-1.6-2.1-1.6-3.7V30.7H556.1z"/>
		</g>
	</g>
	<rect class="st2" width="647" height="177.9"/>
</g>
</svg>
