<?xml version="1.0" encoding="utf-8"?>
<!-- Generator: Adobe Illustrator 21.0.2, SVG Export Plug-In . SVG Version: 6.00 Build 0)  -->
<svg version="1.1" id="Layer_1" xmlns="http://www.w3.org/2000/svg" xmlns:xlink="http://www.w3.org/1999/xlink" x="0px" y="0px"
	 viewBox="0 0 300 120" style="enable-background:new 0 0 300 120;" xml:space="preserve">
<style type="text/css">
	.st0{fill:#383733;}
	.st1{fill:#F15A29;}
</style>
<g>
	<path class="st0" d="M16.1,90.1c-0.3,0-0.5-0.1-0.7-0.4c-0.2-0.2-0.2-0.5-0.2-0.9c0-0.3,0.1-0.6,0.2-0.8c0.1-0.3,0.4-0.4,0.7-0.4
		h4.6c0.3,0,0.6,0.1,0.8,0.2s0.4,0.4,0.4,0.7v12.5c0,1.1-0.2,2-0.5,2.7c-0.3,0.7-0.7,1.3-1.2,1.8c-0.5,0.5-1.1,0.8-1.8,1
		c-0.7,0.2-1.5,0.3-2.3,0.3c-0.9,0-1.7-0.1-2.4-0.4c-0.7-0.2-1.4-0.6-1.9-1c-0.5-0.4-0.9-1-1.2-1.6c-0.3-0.6-0.4-1.3-0.4-2.1
		c0-0.5,0.1-0.9,0.4-1.1c0.2-0.2,0.6-0.3,1.1-0.3c0.3,0,0.7,0.1,0.9,0.2c0.3,0.1,0.4,0.4,0.4,0.7c0,0.4,0.1,0.8,0.2,1.1
		c0.1,0.3,0.3,0.7,0.5,0.9c0.3,0.3,0.6,0.5,1,0.7c0.4,0.2,0.8,0.2,1.4,0.2c1,0,1.8-0.3,2.3-0.8c0.5-0.5,0.8-1.4,0.8-2.5v-11H16.1z"
		/>
	<path class="st0" d="M30.9,106.8c-0.2,0-0.4,0-0.6-0.1c-0.2-0.1-0.4-0.1-0.6-0.2c-0.2-0.1-0.3-0.2-0.4-0.4
		c-0.1-0.1-0.2-0.3-0.2-0.5c0-0.1,0-0.2,0-0.2l5.2-16.9c0.1-0.3,0.3-0.5,0.7-0.7c0.3-0.2,0.7-0.2,1.1-0.2s0.8,0.1,1.1,0.2
		c0.3,0.2,0.6,0.4,0.7,0.7l5.2,16.9c0,0.1,0.1,0.2,0.1,0.2c0,0.2-0.1,0.3-0.2,0.4c-0.1,0.1-0.3,0.3-0.4,0.4
		c-0.2,0.1-0.4,0.2-0.6,0.2c-0.2,0.1-0.4,0.1-0.6,0.1c-0.2,0-0.4,0-0.6-0.1c-0.2-0.1-0.3-0.2-0.4-0.4l-1.1-3.7h-6.5l-1.1,3.7
		c-0.1,0.2-0.2,0.4-0.4,0.4C31.4,106.8,31.2,106.8,30.9,106.8z M38.8,100.3l-2.6-9l-2.6,9H38.8z"/>
	<path class="st0" d="M50.5,88.6c0-0.2,0.1-0.5,0.3-0.6c0.2-0.2,0.5-0.3,0.8-0.3h5.1c0.8,0,1.6,0.1,2.2,0.3c0.7,0.2,1.3,0.5,1.8,1
		c0.5,0.5,0.9,1.1,1.2,1.8c0.3,0.7,0.4,1.6,0.4,2.7v0.2c0,1-0.2,1.9-0.5,2.7c-0.3,0.7-0.7,1.3-1.3,1.8c-0.5,0.5-1.2,0.8-1.9,1
		c-0.7,0.2-1.5,0.3-2.3,0.3h-3.2v6.5c0,0.3-0.1,0.5-0.4,0.7c-0.3,0.2-0.6,0.2-1,0.2c-0.3,0-0.7-0.1-1-0.2c-0.3-0.2-0.4-0.4-0.4-0.7
		V88.6z M53.2,90.1v7.1h3.2c1,0,1.7-0.3,2.3-0.8c0.5-0.6,0.8-1.4,0.8-2.6v-0.3c0-1.2-0.3-2-0.8-2.5c-0.5-0.5-1.3-0.8-2.3-0.8H53.2z"
		/>
	<path class="st0" d="M69.3,106.8c-0.2,0-0.4,0-0.6-0.1c-0.2-0.1-0.4-0.1-0.6-0.2c-0.2-0.1-0.3-0.2-0.4-0.4
		c-0.1-0.1-0.2-0.3-0.2-0.5c0-0.1,0-0.2,0-0.2l5.2-16.9c0.1-0.3,0.3-0.5,0.7-0.7c0.3-0.2,0.7-0.2,1.1-0.2c0.4,0,0.8,0.1,1.1,0.2
		c0.3,0.2,0.6,0.4,0.7,0.7l5.2,16.9c0,0.1,0.1,0.2,0.1,0.2c0,0.2-0.1,0.3-0.2,0.4c-0.1,0.1-0.3,0.3-0.4,0.4
		c-0.2,0.1-0.4,0.2-0.6,0.2c-0.2,0.1-0.4,0.1-0.6,0.1c-0.2,0-0.4,0-0.6-0.1c-0.2-0.1-0.3-0.2-0.4-0.4l-1.1-3.7h-6.5l-1.1,3.7
		c-0.1,0.2-0.2,0.4-0.4,0.4C69.8,106.8,69.5,106.8,69.3,106.8z M77.2,100.3l-2.6-9l-2.6,9H77.2z"/>
	<path class="st0" d="M99.5,106.8c-0.3,0-0.7-0.1-0.9-0.2s-0.5-0.4-0.7-0.8l-6.2-11.9v12c0,0.3-0.1,0.5-0.4,0.7
		c-0.3,0.2-0.6,0.2-1,0.2c-0.3,0-0.7-0.1-1-0.2c-0.3-0.2-0.4-0.4-0.4-0.7V88.6c0-0.3,0.1-0.6,0.4-0.7c0.3-0.1,0.6-0.2,1-0.2
		c0.5,0,0.9,0.1,1.2,0.3c0.3,0.2,0.6,0.6,0.9,1.2l5.8,11.3v-12c0-0.3,0.1-0.5,0.4-0.7c0.3-0.1,0.6-0.2,1-0.2c0.3,0,0.7,0.1,1,0.2
		c0.3,0.1,0.4,0.4,0.4,0.7v17.3c0,0.3-0.1,0.5-0.4,0.7C100.2,106.7,99.9,106.8,99.5,106.8z"/>
	<path class="st0" d="M112.4,96.1h4c0.3,0,0.5,0.1,0.7,0.3c0.2,0.2,0.2,0.5,0.2,0.8c0,0.2-0.1,0.5-0.2,0.7c-0.1,0.2-0.4,0.4-0.7,0.4
		h-4v6h7.8c0.3,0,0.5,0.1,0.7,0.4c0.2,0.2,0.2,0.5,0.2,0.9c0,0.3-0.1,0.6-0.2,0.8c-0.1,0.3-0.4,0.4-0.7,0.4h-9.3
		c-0.3,0-0.6-0.1-0.8-0.2c-0.3-0.2-0.4-0.4-0.4-0.7V88.6c0-0.3,0.1-0.5,0.4-0.7c0.3-0.2,0.5-0.2,0.8-0.2h9.3c0.3,0,0.5,0.1,0.7,0.4
		c0.1,0.3,0.2,0.5,0.2,0.8c0,0.3-0.1,0.6-0.2,0.9c-0.2,0.2-0.4,0.4-0.7,0.4h-7.8V96.1z"/>
	<path class="st0" d="M133.2,104.5c0.9,0,1.7-0.2,2.4-0.7c0.6-0.5,0.9-1.2,0.9-2.1c0-0.8-0.2-1.4-0.6-1.8c-0.4-0.5-0.9-0.9-1.6-1.2
		c-0.6-0.3-1.3-0.6-2.1-0.9c-0.7-0.3-1.4-0.6-2.1-1c-0.6-0.4-1.2-0.9-1.6-1.6c-0.4-0.6-0.6-1.5-0.6-2.5c0-1,0.2-1.8,0.5-2.4
		c0.4-0.6,0.8-1.2,1.4-1.6c0.6-0.4,1.2-0.7,1.9-0.8c0.7-0.2,1.4-0.2,2.1-0.2c0.4,0,0.9,0,1.5,0.1c0.5,0.1,1.1,0.2,1.6,0.3
		c0.5,0.1,0.9,0.3,1.2,0.6c0.3,0.2,0.5,0.5,0.5,0.9c0,0.1,0,0.3-0.1,0.5c0,0.2-0.1,0.3-0.2,0.5c-0.1,0.2-0.2,0.3-0.4,0.4
		c-0.1,0.1-0.3,0.2-0.5,0.2c-0.2,0-0.4-0.1-0.5-0.2c-0.2-0.1-0.4-0.2-0.7-0.3c-0.3-0.1-0.6-0.2-1-0.3C135,90,134.6,90,134,90
		c-1,0-1.7,0.2-2.4,0.6c-0.6,0.4-0.9,1-0.9,1.8c0,0.6,0.2,1.2,0.6,1.5c0.4,0.4,0.9,0.7,1.6,1c0.6,0.3,1.3,0.6,2.1,0.8
		c0.7,0.3,1.4,0.7,2.1,1.1c0.6,0.5,1.2,1.1,1.6,1.8c0.4,0.7,0.6,1.7,0.6,2.8c0,0.9-0.1,1.8-0.4,2.5c-0.3,0.7-0.7,1.3-1.2,1.7
		c-0.5,0.5-1.2,0.8-1.9,1c-0.7,0.2-1.5,0.3-2.4,0.3c-0.9,0-1.6-0.1-2.3-0.3c-0.7-0.2-1.3-0.5-1.8-0.8c-0.5-0.3-0.9-0.6-1.2-1
		c-0.3-0.4-0.4-0.7-0.4-1c0-0.2,0-0.3,0.1-0.5c0.1-0.2,0.1-0.3,0.3-0.5c0.1-0.1,0.2-0.3,0.4-0.4c0.1-0.1,0.3-0.1,0.5-0.1
		c0.2,0,0.5,0.1,0.7,0.3c0.2,0.2,0.5,0.5,0.8,0.7c0.3,0.3,0.7,0.5,1.2,0.7C131.9,104.4,132.5,104.5,133.2,104.5z"/>
	<path class="st0" d="M149.9,96.1h4c0.3,0,0.5,0.1,0.7,0.3c0.2,0.2,0.2,0.5,0.2,0.8c0,0.2-0.1,0.5-0.2,0.7c-0.1,0.2-0.4,0.4-0.7,0.4
		h-4v6h7.8c0.3,0,0.5,0.1,0.7,0.4c0.2,0.2,0.2,0.5,0.2,0.9c0,0.3-0.1,0.6-0.2,0.8c-0.1,0.3-0.4,0.4-0.7,0.4h-9.3
		c-0.3,0-0.6-0.1-0.8-0.2c-0.3-0.2-0.4-0.4-0.4-0.7V88.6c0-0.3,0.1-0.5,0.4-0.7c0.3-0.2,0.5-0.2,0.8-0.2h9.3c0.3,0,0.5,0.1,0.7,0.4
		c0.1,0.3,0.2,0.5,0.2,0.8c0,0.3-0.1,0.6-0.2,0.9c-0.2,0.2-0.4,0.4-0.7,0.4h-7.8V96.1z"/>
	<path class="st0" d="M185.2,92.9c0-0.2-0.1-0.5-0.1-0.8c-0.1-0.3-0.2-0.6-0.4-0.9c-0.2-0.3-0.5-0.5-0.9-0.7
		c-0.4-0.2-0.9-0.3-1.6-0.3c-1,0-1.8,0.3-2.3,0.8c-0.5,0.5-0.8,1.4-0.8,2.5v7.6c0,1.1,0.3,2,0.8,2.5c0.5,0.5,1.3,0.8,2.4,0.8
		c0.7,0,1.2-0.1,1.6-0.3c0.4-0.2,0.7-0.4,0.9-0.7c0.2-0.3,0.3-0.6,0.4-1c0.1-0.3,0.1-0.7,0.1-1c0-0.3,0.2-0.6,0.4-0.7
		c0.2-0.1,0.6-0.2,0.9-0.2c0.5,0,0.8,0.1,1.1,0.3c0.2,0.2,0.3,0.6,0.3,1.2c0,0.7-0.1,1.4-0.4,2c-0.3,0.6-0.7,1.1-1.2,1.6
		c-0.5,0.4-1.2,0.8-1.9,1c-0.7,0.2-1.5,0.4-2.4,0.4c-0.8,0-1.5-0.1-2.2-0.3c-0.7-0.2-1.3-0.5-1.8-1c-0.5-0.5-0.9-1.1-1.2-1.8
		c-0.3-0.7-0.5-1.6-0.5-2.7v-7.6c0-1.1,0.2-2,0.5-2.7c0.3-0.7,0.7-1.3,1.3-1.8c0.5-0.5,1.1-0.8,1.9-1c0.7-0.2,1.5-0.3,2.2-0.3
		c0.9,0,1.7,0.1,2.4,0.4c0.7,0.2,1.4,0.6,1.9,1c0.5,0.4,0.9,0.9,1.2,1.5c0.3,0.6,0.4,1.2,0.4,1.9c0,0.6-0.1,1-0.3,1.2
		c-0.2,0.2-0.6,0.3-1,0.3c-0.4,0-0.7-0.1-1-0.2C185.4,93.5,185.2,93.3,185.2,92.9z"/>
	<path class="st0" d="M204.9,88.6c0-0.3,0.1-0.5,0.4-0.7c0.3-0.1,0.6-0.2,1-0.2c0.3,0,0.7,0.1,1,0.2c0.3,0.1,0.4,0.4,0.4,0.7v12.5
		c0,1.1-0.2,2-0.5,2.7c-0.3,0.7-0.7,1.3-1.3,1.8c-0.5,0.5-1.2,0.8-1.9,1c-0.7,0.2-1.5,0.3-2.4,0.3c-0.8,0-1.6-0.1-2.3-0.3
		c-0.7-0.2-1.4-0.5-1.9-1c-0.5-0.5-1-1.1-1.3-1.8c-0.3-0.7-0.5-1.6-0.5-2.7V88.6c0-0.3,0.1-0.5,0.4-0.7c0.3-0.1,0.6-0.2,1-0.2
		c0.3,0,0.7,0.1,1,0.2c0.3,0.1,0.4,0.4,0.4,0.7v12.5c0,1.1,0.3,2,0.9,2.5c0.6,0.5,1.3,0.8,2.3,0.8c1,0,1.8-0.3,2.4-0.8
		c0.6-0.5,0.8-1.4,0.8-2.5V88.6z"/>
	<path class="st0" d="M216.3,88.6c0-0.3,0.1-0.5,0.4-0.7c0.3-0.1,0.6-0.2,1-0.2c0.3,0,0.7,0.1,1,0.2c0.3,0.1,0.4,0.4,0.4,0.7v17.3
		c0,0.3-0.1,0.5-0.4,0.7c-0.3,0.2-0.6,0.2-1,0.2c-0.3,0-0.7-0.1-1-0.2c-0.3-0.2-0.4-0.4-0.4-0.7V88.6z"/>
	<path class="st0" d="M232.4,104.5c0.9,0,1.7-0.2,2.4-0.7c0.6-0.5,0.9-1.2,0.9-2.1c0-0.8-0.2-1.4-0.6-1.8c-0.4-0.5-0.9-0.9-1.6-1.2
		c-0.6-0.3-1.3-0.6-2.1-0.9c-0.7-0.3-1.4-0.6-2.1-1c-0.6-0.4-1.2-0.9-1.6-1.6c-0.4-0.6-0.6-1.5-0.6-2.5c0-1,0.2-1.8,0.5-2.4
		c0.4-0.6,0.8-1.2,1.4-1.6c0.6-0.4,1.2-0.7,1.9-0.8c0.7-0.2,1.4-0.2,2.1-0.2c0.4,0,0.9,0,1.5,0.1c0.5,0.1,1.1,0.2,1.6,0.3
		c0.5,0.1,0.9,0.3,1.2,0.6c0.3,0.2,0.5,0.5,0.5,0.9c0,0.1,0,0.3-0.1,0.5c0,0.2-0.1,0.3-0.2,0.5c-0.1,0.2-0.2,0.3-0.4,0.4
		c-0.1,0.1-0.3,0.2-0.5,0.2c-0.2,0-0.4-0.1-0.5-0.2c-0.2-0.1-0.4-0.2-0.7-0.3c-0.3-0.1-0.6-0.2-1-0.3c-0.4-0.1-0.8-0.2-1.4-0.2
		c-1,0-1.7,0.2-2.4,0.6c-0.6,0.4-0.9,1-0.9,1.8c0,0.6,0.2,1.2,0.6,1.5c0.4,0.4,0.9,0.7,1.6,1c0.6,0.3,1.3,0.6,2.1,0.8
		c0.7,0.3,1.4,0.7,2.1,1.1c0.6,0.5,1.2,1.1,1.6,1.8c0.4,0.7,0.6,1.7,0.6,2.8c0,0.9-0.1,1.8-0.4,2.5c-0.3,0.7-0.7,1.3-1.2,1.7
		c-0.5,0.5-1.2,0.8-1.9,1c-0.7,0.2-1.5,0.3-2.4,0.3c-0.9,0-1.6-0.1-2.3-0.3c-0.7-0.2-1.3-0.5-1.8-0.8c-0.5-0.3-0.9-0.6-1.2-1
		c-0.3-0.4-0.4-0.7-0.4-1c0-0.2,0-0.3,0.1-0.5c0.1-0.2,0.1-0.3,0.3-0.5c0.1-0.1,0.2-0.3,0.4-0.4c0.1-0.1,0.3-0.1,0.5-0.1
		c0.2,0,0.5,0.1,0.7,0.3c0.2,0.2,0.5,0.5,0.8,0.7c0.3,0.3,0.7,0.5,1.2,0.7C231.1,104.4,231.7,104.5,232.4,104.5z"/>
	<path class="st0" d="M246.3,88.6c0-0.3,0.1-0.5,0.4-0.7c0.3-0.1,0.6-0.2,1-0.2c0.3,0,0.7,0.1,1,0.2c0.3,0.1,0.4,0.4,0.4,0.7v17.3
		c0,0.3-0.1,0.5-0.4,0.7c-0.3,0.2-0.6,0.2-1,0.2c-0.3,0-0.7-0.1-1-0.2c-0.3-0.2-0.4-0.4-0.4-0.7V88.6z"/>
	<path class="st0" d="M268.4,106.8c-0.3,0-0.7-0.1-0.9-0.2c-0.3-0.2-0.5-0.4-0.7-0.8l-6.2-11.9v12c0,0.3-0.1,0.5-0.4,0.7
		c-0.3,0.2-0.6,0.2-1,0.2c-0.3,0-0.7-0.1-1-0.2c-0.3-0.2-0.4-0.4-0.4-0.7V88.6c0-0.3,0.1-0.6,0.4-0.7c0.3-0.1,0.6-0.2,1-0.2
		c0.5,0,0.9,0.1,1.2,0.3c0.3,0.2,0.6,0.6,0.9,1.2l5.8,11.3v-12c0-0.3,0.1-0.5,0.4-0.7c0.3-0.1,0.6-0.2,1-0.2c0.3,0,0.7,0.1,1,0.2
		c0.3,0.1,0.4,0.4,0.4,0.7v17.3c0,0.3-0.1,0.5-0.4,0.7C269.1,106.7,268.8,106.8,268.4,106.8z"/>
	<path class="st0" d="M281.3,96.1h4c0.3,0,0.5,0.1,0.7,0.3c0.2,0.2,0.2,0.5,0.2,0.8c0,0.2-0.1,0.5-0.2,0.7c-0.1,0.2-0.4,0.4-0.7,0.4
		h-4v6h7.8c0.3,0,0.5,0.1,0.7,0.4c0.2,0.2,0.2,0.5,0.2,0.9c0,0.3-0.1,0.6-0.2,0.8c-0.1,0.3-0.4,0.4-0.7,0.4h-9.3
		c-0.3,0-0.6-0.1-0.8-0.2c-0.3-0.2-0.4-0.4-0.4-0.7V88.6c0-0.3,0.1-0.5,0.4-0.7c0.3-0.2,0.5-0.2,0.8-0.2h9.3c0.3,0,0.5,0.1,0.7,0.4
		c0.1,0.3,0.2,0.5,0.2,0.8c0,0.3-0.1,0.6-0.2,0.9c-0.2,0.2-0.4,0.4-0.7,0.4h-7.8V96.1z"/>
</g>
<g>
	<path class="st1" d="M45.7,40.2c0-3.9,0.5-7.7,1.6-11.4c1.1-3.7,2.7-7,4.9-9.8c2.2-2.8,5-5,8.3-6.6C64,10.8,67.9,10,72.5,10
		c2.8,0,5.4,0.3,7.9,0.9c2.5,0.6,4.8,1.4,6.9,2.3c0.6,0.3,1.1,0.7,1.4,1.3c0.3,0.5,0.4,1.1,0.4,1.6c0,0.8-0.2,1.5-0.7,2.1
		c-0.5,0.6-1.1,0.9-1.9,0.9c-0.3,0-0.6-0.1-0.9-0.2c-2.2-0.8-4.3-1.4-6.5-1.9c-2.2-0.5-4.2-0.7-6-0.7c-2.5,0-4.7,0.3-6.6,1
		c-1.9,0.7-3.6,1.6-5,2.7c-1.4,1.1-2.7,2.5-3.7,4c-1,1.6-1.8,3.2-2.5,5c-0.6,1.8-1.1,3.7-1.4,5.6c-0.3,1.9-0.4,3.7-0.4,5.5
		c0,1.7,0.1,3.5,0.4,5.4c0.3,1.9,0.7,3.8,1.4,5.6c0.6,1.8,1.4,3.5,2.5,5c1,1.6,2.2,2.9,3.7,4c1.4,1.1,3.1,2,5,2.7
		c1.9,0.7,4.1,1,6.6,1c0.9,0,2-0.1,3.1-0.2c1.1-0.2,2.3-0.4,3.4-0.7c1.2-0.3,2.4-0.7,3.6-1.2c1.2-0.5,2.4-1,3.5-1.7
		c0.2-0.1,0.5-0.2,0.8-0.3c0.3-0.1,0.5-0.1,0.7-0.1c0.7,0,1.3,0.3,1.8,0.8c0.5,0.5,0.7,1.2,0.7,1.9c0,0.8-0.3,1.5-0.9,2.2
		c-0.6,0.7-1.3,1.3-2.3,1.9c-1,0.6-2.1,1.1-3.3,1.5c-1.3,0.5-2.5,0.8-3.9,1.2c-1.3,0.3-2.6,0.6-4,0.7c-1.3,0.2-2.5,0.2-3.6,0.2
		c-4.6,0-8.6-0.8-11.9-2.4c-3.4-1.6-6.2-3.8-8.4-6.6c-2.2-2.8-3.9-6-4.9-9.7C46.3,47.8,45.7,44,45.7,40.2z"/>
	<path class="st1" d="M144.2,14c0-0.6,0.1-1.1,0.3-1.5c0.2-0.4,0.5-0.8,0.8-1.1c0.3-0.3,0.7-0.5,1.2-0.7c0.4-0.2,0.9-0.2,1.4-0.2
		c0.9,0,1.8,0.3,2.5,0.9c0.8,0.6,1.1,1.4,1.1,2.6v51.8c0,0.6-0.1,1.1-0.3,1.5c-0.2,0.4-0.5,0.8-0.8,1.1c-0.4,0.3-0.8,0.5-1.2,0.6
		c-0.4,0.1-0.9,0.2-1.4,0.2c-0.9,0-1.7-0.3-2.5-0.9c-0.8-0.6-1.1-1.4-1.1-2.6v-24h-31v24c0,0.6-0.1,1.1-0.3,1.5
		c-0.2,0.4-0.5,0.8-0.8,1.1c-0.4,0.3-0.8,0.5-1.2,0.6c-0.4,0.1-0.9,0.2-1.4,0.2c-0.9,0-1.7-0.3-2.5-0.9c-0.8-0.6-1.1-1.4-1.1-2.6V14
		c0-0.6,0.1-1.1,0.3-1.5c0.2-0.4,0.5-0.8,0.8-1.1c0.4-0.3,0.8-0.5,1.2-0.7c0.4-0.2,0.9-0.2,1.4-0.2c0.9,0,1.7,0.3,2.5,0.9
		c0.8,0.6,1.1,1.4,1.1,2.6v21.8h31V14z"/>
	<path class="st1" d="M171.3,69.3c-0.5,0-0.9-0.1-1.3-0.3c-0.4-0.2-0.8-0.5-1.2-0.8c-0.3-0.3-0.6-0.7-0.8-1.1
		c-0.2-0.4-0.3-0.9-0.3-1.3V14c0-0.4,0.1-0.9,0.2-1.3c0.2-0.4,0.4-0.8,0.7-1.1c0.3-0.3,0.7-0.6,1.1-0.8c0.4-0.2,0.9-0.3,1.4-0.3
		h30.7c1,0,1.8,0.3,2.3,0.9c0.5,0.6,0.7,1.3,0.7,2c0,0.8-0.2,1.5-0.7,2.1c-0.5,0.6-1.3,0.9-2.3,0.9h-26.9V36h25.6
		c1,0,1.8,0.3,2.3,0.9c0.5,0.6,0.7,1.3,0.7,2c0,0.7-0.3,1.4-0.8,2c-0.5,0.6-1.3,0.9-2.3,0.9h-25.6v21.3H203c1,0,1.8,0.3,2.3,0.9
		c0.5,0.6,0.7,1.3,0.7,2c0,0.8-0.2,1.5-0.7,2.1c-0.5,0.6-1.3,0.9-2.3,0.9H171.3z"/>
	<path class="st1" d="M218.9,14c0-1,0.3-1.9,1-2.5c0.7-0.6,1.5-1,2.4-1h29.1c1,0,1.8,0.3,2.3,0.9c0.5,0.6,0.7,1.3,0.7,2
		c0,0.8-0.2,1.5-0.7,2.1c-0.5,0.6-1.3,0.9-2.3,0.9h-25.2v19.2h24.1c1,0,1.8,0.3,2.3,0.9c0.5,0.6,0.8,1.3,0.8,2
		c0,0.8-0.3,1.5-0.8,2.1c-0.5,0.6-1.3,0.9-2.3,0.9h-24.1v24.1c0,0.6-0.1,1.1-0.3,1.5c-0.2,0.4-0.5,0.8-0.8,1.1
		c-0.4,0.3-0.8,0.5-1.2,0.6c-0.4,0.1-0.9,0.2-1.3,0.2c-0.9,0-1.8-0.3-2.5-0.9c-0.8-0.6-1.1-1.4-1.1-2.6V14z"/>
</g>
</svg>
